<svg viewBox="0 0 40 40" fill="none" xmlns="http://www.w3.org/2000/svg">
  <path fill-rule="evenodd" clip-rule="evenodd" d="M32.5 10.4167C33.1903 10.4167 33.75 10.9764 33.75 11.6667C33.75 15.4075 32.1633 17.8661 30.1053 19.3479C28.1112 20.7837 25.7557 21.2501 24.1667 21.2501H10.5178L16.7172 27.4496C17.2053 27.9377 17.2053 28.7291 16.7172 29.2172C16.2291 29.7054 15.4376 29.7054 14.9494 29.2172L6.61611 20.8839C6.12796 20.3957 6.12796 19.6044 6.61611 19.1162L14.9494 10.7829C15.4376 10.2947 16.2291 10.2947 16.7172 10.7829C17.2053 11.271 17.2053 12.0625 16.7172 12.5506L10.5178 18.7501H24.1667C25.3555 18.7501 27.1667 18.3831 28.6447 17.3189C30.0588 16.3007 31.25 14.5927 31.25 11.6667C31.25 10.9764 31.8097 10.4167 32.5 10.4167Z" fill="white" stroke="white"/>
</svg>
