<svg width="97" height="96" viewBox="0 0 97 96" fill="none" xmlns="http://www.w3.org/2000/svg">
  <g clip-path="url(#clip0_22_636)">
    <path d="M88.9503 50.6129C87.4579 41.7225 81.19 40.3018 78.2452 40.1343C77.3182 40.0816 76.4569 39.6116 75.9485 38.8351C73.815 35.5782 70.9557 34.717 68.5268 34.717C66.7825 34.717 65.2608 35.1612 64.3896 35.482C64.2807 35.5224 64.1683 35.5414 64.0582 35.5414C63.7137 35.5414 63.3842 35.3549 63.2017 35.0416C61.0345 31.3246 57.9538 30.3656 55.3527 30.3656C53.8385 30.3652 52.4866 30.6903 51.5715 30.9849C51.4765 31.0154 51.3779 31.0296 51.2849 31.0296C50.7875 31.0296 50.3492 30.6218 50.3492 30.0888V10.9743C50.3492 6.60515 47.0927 4.42017 43.8156 4.42017C40.5385 4.42017 37.282 6.60515 37.282 10.9743V44.5973C37.282 46.5732 35.6641 47.7948 34.0374 47.7948C33.0498 47.7948 32.0433 47.3442 31.3887 46.3384L28.2182 41.4754C26.8291 39.1831 24.8088 38.2332 22.8095 38.2332C18.2907 38.2328 13.8641 43.0871 17.0042 48.2688L41.7458 95.5604C41.9078 95.87 42.2277 96.0003 42.577 96.0003H77.3269C77.8227 96.0003 78.2333 95.678 78.2634 95.183L79.1329 81.0523C79.1428 80.8891 79.1971 80.7458 79.2874 80.6088C87.9133 67.5436 90.383 59.1494 88.9503 50.6129Z" fill="white" stroke="white" stroke-width="0.824946"/>
    <path d="M16.691 8.0556V30.4424C16.691 31.7543 17.7546 32.8182 19.0668 32.8182C20.3787 32.8182 21.4427 31.7543 21.4427 30.4424V8.16727L26.2617 12.9201C27.189 13.8475 28.7266 13.8479 29.6548 12.9197C30.5825 11.992 30.5988 10.4877 29.671 9.55991L20.8147 0.695628C19.8873 -0.231744 18.3869 -0.23214 17.4588 0.696024L8.36364 9.79353C7.43587 10.7213 7.43706 12.2256 8.36522 13.1534C8.82891 13.6171 9.43752 13.8491 10.0453 13.8491C10.6532 13.8491 11.1956 13.6171 11.6597 13.153L16.691 8.0556Z" fill="white" stroke="white" stroke-width="0.824946"/>
  </g>
  <defs>
    <clipPath id="clip0_22_636">
      <rect width="96" height="96" fill="white" transform="translate(0.5)"/>
    </clipPath>
  </defs>
</svg>
